# xmcd
#
# Track frame offsets:
# 150
# 12440
# 26022
# 40937
# 52312
# 65680
# 81550
# 95520
# 108997
# 120410
# 132982
# 151005
# 162830
# 173380
# 185720
# 195982
#
# Disc length: 2740 seconds
#
#
# Revision: 0
# Processed by: cddbd v1.5.2PL0 Copyright (c) Steve Scherf et al.
# Submitted via: FreeRIP 2.951 
#
DISCID=d20ab210
DTITLE=Various Artist - Outlaws and Angels Classic Country
DYEAR=1900
DGENRE=Country
TTITLE0=I Walk The Line
TTITLE1=Coal Miners Daughter
TTITLE2=Luckenback, TExas (Back to the Basics of Love)
TTITLE3=On the Road Again
TTITLE4=Behind Closed Doors
TTITLE5=Lookin' for Love
TTITLE6=I Will Always Love You
TTITLE7=Gentle on my Mind
TTITLE8=Mammas don't let your Babies grow up to be Cowboys
TTITLE9=I'm so lonesome I could cry
TTITLE10=Big Iron
TTITLE11=Take this job and Shove It
TTITLE12=Blue Eyes Crying in the Rain
TTITLE13=Okie from Muskogee
TTITLE14=Engine, Engine #9
TTITLE15=The Race is on
EXTD=
EXTT0=Johnny Cash and the Tenessee Two
EXTT1=Loretta Lynn
EXTT2=Waylon Jennings
EXTT3=Willie Nelson
EXTT4=Charlie Rich
EXTT5=Johnny Lee
EXTT6=Dolly Parton
EXTT7=Glen Campbell
EXTT8=Waylon Jennings and Willie Nelson
EXTT9=Hank Williams
EXTT10=Marty Robbins
EXTT11=Johnny Paycheck
EXTT12=Willie Nelson
EXTT13=Merle Haggard
EXTT14=Roger Miller
EXTT15=George Jones
PLAYORDER=
